<svg role="img" viewBox="0 0 60 60" xmlns="http://www.w3.org/2000/svg">
    <title>Nico Logo</title>
    <desc>A minimalistic rendering of a bike chain</desc>
    <path
        d="
        M 15 35
        A 10 10, 0, 1, 0, 25 45
        A 5 5, 0, 0, 1, 30 40 
        A 10 10, 0, 1, 0, 20 30 
        A 5 5, 0, 0, 1, 15 35
    "
        stroke="currentColor"
        stroke-width="3.5"
        fill="none"
    />
    <path
        d="
        M 40 30
        A 5 5, 0, 0, 1, 45 25
        A 10 10, 0, 1, 0, 35 15
        A 5 5, 0, 0, 1, 30 20
    "
        stroke="currentColor"
        stroke-width="3.5"
        fill="none"
    />

    <circle
        cx="45"
        cy="15"
        r="3.5"
        stroke="currentColor"
        stroke-width="3.5"
        fill="none"
    />
    <circle
        cx="30"
        cy="30"
        r="3.5"
        stroke="currentColor"
        stroke-width="3.5"
        fill="none"
    />
    <circle
        cx="15"
        cy="45"
        r="3.5"
        stroke="currentColor"
        stroke-width="3.5"
        fill="none"
    />
</svg>